# xmcd CD database file
#
# Track frame offsets:
#	150
#	29948
#	43509
#	55152
#	67154
#	80133
#	91905
#	104079
#	116760
#	128127
#	138920
#	152664
#	162880
#	173811
#	187729
#	200100
#	213940
#	226839
#	237662
#	251855
#	269299
#	282931
#	294181
#	306608
#	319006
#	333864
#	343469
#
# Disc length: 4778 seconds
#
# Revision: 0
# Processed by: cddbd v1.5.2PL0 Copyright (c) Steve Scherf et al.
# Submitted via: CDex 1.70beta2
#
DISCID=a512a81b
DTITLE=Various Artist - Black Blues Box
DYEAR=2010
DGENRE=Blues
TTITLE0=01 Howlin Wolf - Backdoor Man
TTITLE1=02 Muddy Waters - Wollin and Dumbling
TTITLE2=03 John Lee Hooker - Crawlin Kingsmake
TTITLE3=04 Jimmy Reed - Bright Lights big City
TTITLE4=05 Tommy Tuker - High Heel Sneakers
TTITLE5=06 Little Walter - My Bab
TTITLE6=07 Chuck Berry - Arround and Arround
TTITLE7=08 Bo Diddley - i am a Man
TTITLE8=09 Elmore James - Comming Home
TTITLE9=10 Willy Mabou - i am mad
TTITLE10=11 Koko Tailer - Wang Dang Doodle
TTITLE11=12 Jimmy Witherspoon - Cansas City
TTITLE12=13 Howling Wolf - Little red Rooster
TTITLE13=14 Willy Dixon - Walking the Blues
TTITLE14=15 Jimmy Reed - Onest i do
TTITLE15=16 Elmore James - Dust my Broom
TTITLE16=17 Muddy Waters - Hoochie Coochie Man
TTITLE17=18 John Lee Hooker - Boom Boom Boom
TTITLE18=19 Sonny Boy Williamson - Help me
TTITLE19=20 Howlin Wolf - Spoonfull
TTITLE20=21 Eddie Tailer - Bad Boy
TTITLE21=22 J. B. Lenoir - Mama talk to your Dughter
TTITLE22=23 John Lee Hooker - I'm in the Mood
TTITLE23=24 John Lee Hooker, Muddy Waters - i can't be satisfied
TTITLE24=25 Champion Jack Dupree - Third Degree
TTITLE25=26 Champion Jack Dupree - shim sham shimmy
TTITLE26=27 Champion Jack Dupree - Caledonia
EXTD=YEAR: 2010
EXTT0=
EXTT1=
EXTT2=
EXTT3=
EXTT4=
EXTT5=
EXTT6=
EXTT7=
EXTT8=
EXTT9=
EXTT10=
EXTT11=
EXTT12=
EXTT13=
EXTT14=
EXTT15=
EXTT16=
EXTT17=
EXTT18=
EXTT19=
EXTT20=
EXTT21=
EXTT22=
EXTT23=
EXTT24=
EXTT25=
EXTT26=
PLAYORDER=
